<svg xmlns="http://www.w3.org/2000/svg" width="49.973" height="43.637"><defs><style>.a,.b,.e{fill:none}.a,.b,.c{stroke:#3e3e3e}.a,.c{stroke-miterlimit:10;stroke-width:1.417px}.c{fill:#fff}.d{stroke:none}</style></defs><g class="a" transform="translate(3.374)"><rect class="d" width="46.599" height="32.377" rx="2.232"/><rect class="e" x=".709" y=".709" width="45.181" height="30.96" rx="1.524"/></g><path class="a" d="M3.979 25.493h45.086"/><rect class="b" width="15.111" height="1.68" rx=".84" transform="rotate(-45 44.82 -30.941)"/><rect class="b" width="6.967" height="1.68" rx=".84" transform="rotate(-45 47.71 -37.888)"/><path class="a" d="M26.673 42.929h7.693a.314.314 0 00.143-.593c-.728-.394-2.589-1.029-2.589-2.03v-8.623h-5.245m-.002 11.246h-7.691a.314.314 0 01-.143-.593c.728-.394 2.589-1.029 2.589-2.03v-8.623h5.245"/><g class="c"><path class="d" d="M0 8.46h19.411v11.7H0z"/><path class="e" d="M.709 9.169h17.994v10.283H.709z"/></g><path class="a" d="M6.173 12.23l-2.194 2.194 2.181 2.181m7.498-4.375l2.194 2.194-2.181 2.181"/><path class="c" d="M7.953 17.071l3.505-5.598"/></svg>